<?xml version="1.0" encoding="utf-8"?>
<!-- Generator: Adobe Illustrator 24.0.0, SVG Export Plug-In . SVG Version: 6.00 Build 0)  -->
<svg version="1.1" id="Layer_1" xmlns="http://www.w3.org/2000/svg" xmlns:xlink="http://www.w3.org/1999/xlink" x="0px" y="0px"
	 viewBox="0 0 1000 1000" style="enable-background:new 0 0 1000 1000;" xml:space="preserve">
<style type="text/css">
	.st0{fill:#EDD2F3;}
	.st1{fill:#FFF6BD;}
	.st2{fill:#E86E85;}
	.st3{fill:#12132F;}
	.st4{fill:#C6689D;}
	.st5{fill:none;}
	.st6{fill:url(#SVGID_1_);}
	.st7{fill:url(#SVGID_2_);}
	.st8{fill:url(#SVGID_3_);}
	.st9{opacity:0.5;}
	.st10{fill:url(#SVGID_4_);}
	.st11{fill:url(#SVGID_5_);}
	.st12{fill:url(#SVGID_6_);}
	.st13{fill:url(#SVGID_7_);}
	.st14{fill:url(#SVGID_8_);}
	.st15{fill:url(#SVGID_9_);}
	.st16{fill:url(#SVGID_10_);}
	.st17{fill:url(#SVGID_11_);}
	.st18{fill:#C63168;}
	.st19{fill:url(#SVGID_12_);}
	.st20{fill:url(#SVGID_13_);}
	.st21{fill:url(#SVGID_14_);}
	.st22{fill:#DF722F;}
	.st23{fill:#D49C3D;}
	.st24{fill:#4683E0;}
	.st25{fill:url(#SVGID_15_);}
	.st26{fill:url(#SVGID_16_);}
	.st27{fill:url(#SVGID_17_);}
	.st28{fill:url(#SVGID_18_);}
	.st29{fill:url(#SVGID_19_);}
	.st30{opacity:0.5;fill:#FFFFFF;}
	.st31{fill:#54B435;}
	.st32{fill:url(#SVGID_20_);}
	.st33{fill:#3B3486;}
	.st34{fill:url(#SVGID_21_);}
	.st35{fill:url(#SVGID_22_);}
	.st36{fill:url(#SVGID_23_);}
	.st37{fill:#00235B;}
	.st38{fill:url(#SVGID_24_);}
	.st39{fill:url(#SVGID_25_);}
</style>
<rect class="st3" width="1000" height="1000"/>
<g>
	<path class="st18" d="M327.91,313.99c-4.14,0-7.95,1.37-11.04,3.66c-1.43,1.06-2.7,2.31-3.77,3.72c-2.37,3.12-3.79,7-3.79,11.22
		c0,10.27,8.33,18.6,18.6,18.6c4.68,0,8.95-1.74,12.21-4.59c0.48-0.48,0.97-0.95,1.46-1.42c3.05-3.31,4.93-7.72,4.93-12.58
		C346.51,322.32,338.18,313.99,327.91,313.99z"/>
	<linearGradient id="SVGID_1_" gradientUnits="userSpaceOnUse" x1="370.6113" y1="361.7888" x2="384.2411" y2="402.6783">
		<stop  offset="0" style="stop-color:#C63168"/>
		<stop  offset="1" style="stop-color:#DF722F"/>
	</linearGradient>
	<path class="st6" d="M373.77,352.15c-4.14,0-7.95,1.33-11.08,3.56c-1.14,1.01-2.27,2.04-3.38,3.08c-2.89,3.35-4.65,7.7-4.65,12.48
		c0,10.56,8.56,19.12,19.12,19.12c10.56,0,19.12-8.56,19.12-19.12C392.89,360.71,384.33,352.15,373.77,352.15z"/>
	<linearGradient id="SVGID_2_" gradientUnits="userSpaceOnUse" x1="323.3252" y1="413.9845" x2="349.8276" y2="457.1456">
		<stop  offset="0" style="stop-color:#C63168"/>
		<stop  offset="1" style="stop-color:#D49C3D"/>
	</linearGradient>
	<path class="st7" d="M335.08,414.01c-10.56,0-19.12,8.56-19.12,19.12c0,10.56,8.56,19.12,19.12,19.12c7.97,0,14.79-4.88,17.66-11.8
		c0.51-1.24,0.89-2.54,1.13-3.89c0.2-1.11,0.32-2.25,0.32-3.43C354.2,422.58,345.64,414.01,335.08,414.01z"/>
	<linearGradient id="SVGID_3_" gradientUnits="userSpaceOnUse" x1="331.2324" y1="491.1261" x2="339.5617" y2="535.8016">
		<stop  offset="0" style="stop-color:#DF722F"/>
		<stop  offset="1" style="stop-color:#D49C3D"/>
	</linearGradient>
	<path class="st8" d="M353.31,505.25c-0.23-1.34-0.6-2.64-1.1-3.87c-2.84-7-9.7-11.95-17.72-11.95c-10.56,0-19.12,8.56-19.12,19.12
		s8.56,19.12,19.12,19.12s19.12-8.56,19.12-19.12C353.61,507.42,353.5,506.32,353.31,505.25z"/>
	<path class="st22" d="M285.54,376.07c-6.77,0-12.68,3.63-15.94,9.04c-0.85,1.42-1.52,2.96-1.97,4.59
		c-0.44,1.58-0.69,3.24-0.69,4.97c0,10.27,8.33,18.6,18.6,18.6c7.16,0,13.37-4.06,16.48-9.99c0.4-0.76,0.74-1.55,1.03-2.37
		c0.7-1.95,1.1-4.05,1.1-6.24C304.14,384.4,295.81,376.07,285.54,376.07z"/>
	<path class="st23" d="M288.28,469.24c-1.28-9.03-9.02-15.98-18.4-15.98c-10.27,0-18.6,8.33-18.6,18.6c0,10.27,8.33,18.6,18.6,18.6
		c9.38,0,17.12-6.95,18.4-15.98c0.12-0.86,0.21-1.73,0.21-2.62C288.49,470.97,288.4,470.1,288.28,469.24z"/>
	<path class="st24" d="M303.35,543.52c-0.46-1.72-1.15-3.33-2.04-4.82c-3.26-5.39-9.16-9.01-15.91-9.01
		c-10.27,0-18.6,8.33-18.6,18.6c0,2.55,0.51,4.98,1.44,7.19c0.02,0.05,0.04,0.09,0.06,0.14c2.84,6.63,9.43,11.28,17.1,11.28
		c10.27,0,18.6-8.33,18.6-18.6C303.99,546.64,303.75,545.04,303.35,543.52z"/>
	<path class="st5" d="M624.2,480.8l4.79-5.26C627.35,477.26,625.76,479.01,624.2,480.8z"/>
	<path class="st5" d="M614.16,493.62c3.27-4.07,6.61-8.33,10.02-12.8C620.62,484.9,617.28,489.18,614.16,493.62z"/>
	<linearGradient id="SVGID_4_" gradientUnits="userSpaceOnUse" x1="548.8791" y1="480.809" x2="699.4835" y2="480.809">
		<stop  offset="0" style="stop-color:#DF722F"/>
		<stop  offset="1" style="stop-color:#FFFFFF;stop-opacity:0"/>
	</linearGradient>
	<path class="st10" d="M624.18,480.82C624.18,480.82,624.18,480.82,624.18,480.82c0,0,0.01-0.01,0.02-0.02L624.18,480.82z"/>
	<linearGradient id="SVGID_5_" gradientUnits="userSpaceOnUse" x1="374.6232" y1="597.6745" x2="578.8292" y2="533.6837">
		<stop  offset="0" style="stop-color:#DF722F"/>
		<stop  offset="1" style="stop-color:#FFFFFF;stop-opacity:0"/>
	</linearGradient>
	<path class="st11" d="M677.09,484.78l-16.16-34.89l-2.88-6.22l-29.05,31.87l-4.79,5.26c-0.01,0.01-0.01,0.01-0.02,0.02
		c-3.41,4.48-6.75,8.73-10.02,12.8c-17.32,21.55-32.66,37.57-45.74,49.46c-18.59,16.9-32.58,25.45-41.17,29.67
		c-6.44,3.17-9.84,3.9-9.84,3.9c-15.67,7.79-33.31,12.19-51.99,12.19c-31.74,0-60.5-12.66-81.57-33.17
		c-0.83-0.81-1.65-1.63-2.45-2.46c-3.32-2.8-7.61-4.48-12.29-4.48c-10.56,0-19.12,8.56-19.12,19.12c0,5.15,2.05,9.82,5.37,13.26
		c0.13,0.13,0.26,0.27,0.39,0.4c28.07,28.08,66.85,45.45,109.68,45.45c22.74,0,44.33-4.92,63.78-13.71
		c3.7-1.67,7.34-3.47,10.88-5.42c8.57-4.72,16.63-10.24,24.12-16.43c3.4-2.81,6.68-5.74,9.83-8.83l0.31-0.31l3.53-3.58
		c0,0,3.35-3.72,8.8-9.6c16.04-17.29,50.33-53.34,71.68-69.06l0,0l20.88-10.58L677.09,484.78z"/>
	<linearGradient id="SVGID_6_" gradientUnits="userSpaceOnUse" x1="329.6423" y1="669.0223" x2="643.7822" y2="558.6757">
		<stop  offset="0" style="stop-color:#4683E0"/>
		<stop  offset="0.5279" style="stop-color:#00FF00;stop-opacity:0.48"/>
		<stop  offset="1" style="stop-color:#FFFFFF;stop-opacity:0"/>
	</linearGradient>
	<path class="st12" d="M738.51,490.79c-7.01,0.2-13.82,1.15-20.35,2.84c-18,4.64-33.84,14.6-45.8,28.09l-0.04,0.02
		c-12.09,12.69-30.03,29.51-47.03,44.98c-15,13.64-29.27,26.23-38.16,34.01c-5.74,5.02-9.24,8.04-9.24,8.04
		c-3.42,2.82-6.96,5.5-10.6,8.05c-7.04,4.95-14.45,9.42-22.2,13.33c-3.76,1.9-7.61,3.65-11.51,5.28
		c-20.98,8.76-44,13.62-68.16,13.62c-47.52,0-90.67-18.71-122.49-49.16c-1-0.96-1.99-1.93-2.97-2.91
		c-3.16-2.48-7.14-3.98-11.47-3.98c-10.27,0-18.6,8.33-18.6,18.6c0,4.49,1.59,8.6,4.23,11.81c0.84,1.02,1.79,1.93,2.82,2.75
		c38.5,37.06,90.82,59.85,148.48,59.85c28.42,0,55.54-5.55,80.36-15.61c4.23-1.71,8.41-3.54,12.5-5.52
		c7.06-3.4,13.9-7.18,20.49-11.31c3.9-2.44,7.71-5,11.44-7.67c2.4-1.72,4.74-3.51,7.06-5.32c3.69-2.89,7.29-5.88,10.78-8.99
		c0,0,0,0,0,0.01l0.17-0.16l19.91-18.61l21.65-20.24l53.61-50.1l0.01-0.01l16.93-10.89l28.37-18.25L738.51,490.79z"/>
	<linearGradient id="SVGID_7_" gradientUnits="userSpaceOnUse" x1="375.0803" y1="508.1884" x2="575.5585" y2="435.3651">
		<stop  offset="0" style="stop-color:#C63168"/>
		<stop  offset="1" style="stop-color:#FFFFFF;stop-opacity:0"/>
	</linearGradient>
	<path class="st13" d="M663.4,423.4l-12.28-35.1l-5.96-17.03l-36.49,41.1l-7.94,8.59l-21.56,23.35l-0.04,0.04
		c0,0-0.02,0.01-0.02,0.02c-0.14,0.12-2.16,1.92-5.46,4.86c-4,3.56-9.89,8.8-16.68,14.83c-17.06,15.17-39.67,35.24-51.53,45.7
		c-2.43,2.57-5.11,4.91-8,6.97c-3.9,2.79-8.17,5.09-12.73,6.79c-6.01,2.25-12.51,3.48-19.3,3.48c-30.45,0-55.13-24.68-55.13-55.13
		c0-12.25,4.01-23.55,10.77-32.7l1.33-1.72c1.05-1.31,2.15-2.57,3.31-3.77c4.15-3.38,6.81-8.54,6.81-14.31
		c0-10.19-8.26-18.46-18.46-18.46c-3.49,0-6.94,1.01-9.88,2.89c-0.82,0.52-1.6,1.11-2.33,1.75l-3.74,3.77l-0.38,0.44
		c-1.61,1.75-3.15,3.56-4.62,5.43c0,0-0.22,0.25-0.21,0.28c-12.13,15.57-19.39,35.13-19.39,56.4c0,50.76,41.15,91.92,91.92,91.92
		c14.94,0,29.03-3.59,41.51-9.91c7.97-4.04,15.26-9.21,21.69-15.29c0,0,72.49-74.51,126.8-105.92l9.44-5.11L663.4,423.4"/>
</g>
</svg>
