<?xml version="1.0" encoding="utf-8"?>
<!-- Generator: Adobe Illustrator 24.0.0, SVG Export Plug-In . SVG Version: 6.00 Build 0)  -->
<svg version="1.1" id="Layer_1" xmlns="http://www.w3.org/2000/svg" xmlns:xlink="http://www.w3.org/1999/xlink" x="0px" y="0px"
	 viewBox="0 0 1000 1000" style="enable-background:new 0 0 1000 1000;" xml:space="preserve">
<style type="text/css">
	.st0{fill:#EDD2F3;}
	.st1{fill:#FFF6BD;}
	.st2{fill:#E86E85;}
	.st3{fill:#12132F;}
	.st4{fill:#C6689D;}
	.st5{fill:none;}
	.st6{fill:url(#SVGID_1_);}
	.st7{fill:url(#SVGID_2_);}
	.st8{fill:url(#SVGID_3_);}
	.st9{opacity:0.5;}
	.st10{fill:url(#SVGID_4_);}
	.st11{fill:url(#SVGID_5_);}
	.st12{fill:url(#SVGID_6_);}
	.st13{fill:url(#SVGID_7_);}
	.st14{fill:url(#SVGID_8_);}
	.st15{fill:url(#SVGID_9_);}
	.st16{fill:url(#SVGID_10_);}
	.st17{fill:url(#SVGID_11_);}
	.st18{fill:#C63168;}
	.st19{fill:url(#SVGID_12_);}
	.st20{fill:url(#SVGID_13_);}
	.st21{fill:url(#SVGID_14_);}
	.st22{fill:#DF722F;}
	.st23{fill:#D49C3D;}
	.st24{fill:#4683E0;}
	.st25{fill:url(#SVGID_15_);}
	.st26{fill:url(#SVGID_16_);}
	.st27{fill:url(#SVGID_17_);}
	.st28{fill:url(#SVGID_18_);}
	.st29{fill:url(#SVGID_19_);}
	.st30{opacity:0.5;fill:#FFFFFF;}
	.st31{fill:#54B435;}
	.st32{fill:url(#SVGID_20_);}
	.st33{fill:#3B3486;}
	.st34{fill:url(#SVGID_21_);}
	.st35{fill:url(#SVGID_22_);}
	.st36{fill:url(#SVGID_23_);}
	.st37{fill:#00235B;}
	.st38{fill:url(#SVGID_24_);}
	.st39{fill:url(#SVGID_25_);}
</style>
<rect class="st1" width="999.13" height="999.13"/>
<g>
	<linearGradient id="SVGID_1_" gradientUnits="userSpaceOnUse" x1="500" y1="333.5018" x2="500" y2="654.1663">
		<stop  offset="0" style="stop-color:#CDE990"/>
		<stop  offset="1" style="stop-color:#68B984"/>
	</linearGradient>
	<path class="st6" d="M665.2,491.06c0-2.53-0.28-4.99-0.8-7.37c-3.37-15.42-17.1-26.96-33.53-26.96c-10.32,0-19.75,3.81-26.97,10.09
		c-1.76,1.53-3.4,3.21-4.88,5.02c-2.04,2.5-3.8,5.24-5.22,8.17c-6.69,7.93-16.69,12.96-27.88,12.96c-10.76,0-20.43-4.66-27.11-12.08
		c-1.61-3.27-3.63-6.31-5.98-9.05c-7.94-9.25-19.7-15.12-32.85-15.12c-23.9,0-43.27,19.37-43.27,43.27
		c0,23.9,19.37,43.27,43.27,43.27c13.67,0,25.84-6.34,33.77-16.24c2.35-2.93,4.32-6.17,5.85-9.66c6.18-7.14,15.3-11.67,25.48-11.67
		c18.61,0,33.69,15.08,33.69,33.69c0,3.38-0.5,6.64-1.43,9.72c-2.54,5.02-5.45,9.82-8.71,14.36
		c-19.79,27.59-52.11,45.59-88.66,45.59c-60.23,0-109.06-48.83-109.06-109.06S439.77,390.94,500,390.94c8.8,0,17.34,1.07,25.54,3.04
		c2.11,0.51,4.2,1.06,6.25,1.68c1.65,0.26,3.33,0.41,5.05,0.41c17.45,0,31.6-14.15,31.6-31.6c0-6.28-1.84-12.12-4.99-17.04
		c-19.54-8.13-40.97-12.63-63.45-12.63c-91.24,0-165.2,73.96-165.2,165.2S408.76,665.2,500,665.2S665.2,591.24,665.2,500
		c0-2.05-0.05-4.09-0.12-6.12C665.16,492.95,665.2,492.01,665.2,491.06z"/>
	<path class="st30" d="M630.88,456.73c-10.56,0-20.01,4.78-26.31,12.28c-5,5.96-8.02,13.65-8.02,22.05
		c0,10.08,4.35,19.15,11.27,25.43c6.09,5.53,14.18,8.89,23.05,8.89c18.01,0,32.77-13.87,34.2-31.51c-0.12-3.42-0.35-6.82-0.68-10.18
		C661.03,468.28,647.31,456.73,630.88,456.73z"/>
</g>
</svg>
